<?xml version="1.0" encoding="utf-8"?>
<!-- Generator: Adobe Illustrator 16.0.0, SVG Export Plug-In . SVG Version: 6.00 Build 0)  -->
<!DOCTYPE svg PUBLIC "-//W3C//DTD SVG 1.1//EN" "http://www.w3.org/Graphics/SVG/1.1/DTD/svg11.dtd">
<svg version="1.1" id="animated-logo" xmlns="http://www.w3.org/2000/svg" xmlns:xlink="http://www.w3.org/1999/xlink" x="0px" y="0px" width="500px"
	 height="114px" viewBox="0 0 500 114" enable-background="new 0 0 500 114" xml:space="preserve">
<style>
        #yellow-star {
        	-webkit-animation-name:bounce;
            animation-name: bounce;
            -moz-animation-name:bounce;
            animation-duration: 4s;
            -moz-animation-duration: 4s;
            animation-iteration-count: 1;
            -webkit-animation-iteration-count: 1;
            -moz-animation-iteration-count: 1;
            transform-origin: 0 0;
            -moz-transform-origin: 0 0;
            -webkit-transform-origin: 0 0;
     
        }
         #purple-star {
        	-webkit-animation-name:bounce;
            animation-name: bounce;
            -moz-animation-name:bounce;
            animation-duration: 4s;
            -moz-animation-duration: 4s;
            animation-iteration-count: 1;
            -webkit-animation-iteration-count: 1;
            -moz-animation-iteration-count: 1;
            transform-origin: 0 0;
            -moz-transform-origin: 0 0;
            -webkit-transform-origin: 0 0;
          
        }
        
        #blue-star {
        	-webkit-animation-name:bounce;
            animation-name: bounce;
            -moz-animation-name:bounce;
            animation-duration: 4s;
            -moz-animation-duration: 4s;
            animation-iteration-count: 1;
            -webkit-animation-iteration-count: 1;
            -moz-animation-iteration-count: 1;
            transform-origin: 0 0;
            -moz-transform-origin: 0 0;
            -webkit-transform-origin: 0 0;
         
        }

        @keyframes yellow-star-rotate {
            0%   { transform: rotate(0deg); }
            100%  { transform: rotate(360deg); }
        }

        #animated-logo:hover #yellow-star{
			animation-play-state:running;
		}

        #hand{
        	-webkit-animation-name:hand-move;
            animation-name: hand-move;
            -moz-animation-name:hand-move;
            animation-duration: 4s;
            -moz-animation-duration: 4s;
            animation-iteration-count: 1;
            -webkit-animation-iteration-count: 1;
            -moz-animation-iteration-count: 1;
            transform-origin: 0% 0%;
            -moz-transform-origin: 0% 0%;
            -webkit-transform-origin: 0% 0%;
            
        }


        @keyframes hand-rotate {
            0%   { transform: rotate(0deg); }
            50%  { transform: rotate(-15deg); }
            100% { transform: rotate(0deg); }
        }
        @keyframes hand-move{
            0%   { transform: translateY(20px); }
            25%  { transform: translateY(-15px); }
            60%  { transform: translateY(0px); }
        }

        #allTxt
        {
        	-webkit-animation-name:textAnimate;
            animation-name: textAnimate;
            -moz-animation-name:textAnimate;
            animation-duration: 5.5s;
            -moz-animation-duration: 5.5s;
            animation-iteration-count: 1;
            -webkit-animation-iteration-count: 1;
            -moz-animation-iteration-count: 1;
            transform-origin: 0% 0%;
            -moz-transform-origin: 0% 0%;
            -webkit-transform-origin: 0% 0%;      
        }
        @keyframes textAnimate{
        0%		{transform: scale(-0.1);}
        75%		{transform: scale(-0.1);}
        <!--90% 	{	-webkit-transform: scale(0.5);
					-moz-transform: scale(0.5);
					-o-transform: scale(0.5);
					transform: scale(0.5);}-->
        100% {transform: scale(1);}
        }
        
		@keyframes bounce {
			<!--50%,-->
			75% {transform: translateY(-5px);}
			
			100% {
					transform: translateY(0);
			}
			
			25%
			{
					transform: translateY(-40px);
			}
			0% {transform: translateY(42px);}
			
			<!--40%,-->
			60% {
					transform: translateY(5px);
			}
		}

</style>
<g id="allTxt">
<g id="talentTxt">
	<g>
		<path fill="#00A4C0" d="M114.52,40.571v17.22c0,0.58-0.17,0.959-0.51,1.14c-0.34,0.18-0.84,0.271-1.5,0.271
			c-0.64,0-1.13-0.091-1.47-0.271c-0.34-0.181-0.51-0.56-0.51-1.14v-17.22h-9.03c-0.48,0-0.795-0.135-0.945-0.405
			s-0.225-0.675-0.225-1.215s0.075-0.945,0.225-1.215s0.465-0.405,0.945-0.405h22.08c0.48,0,0.795,0.135,0.945,0.405
			c0.15,0.27,0.225,0.675,0.225,1.215s-0.075,0.945-0.225,1.215c-0.15,0.27-0.465,0.405-0.945,0.405H114.52z"/>
		<path fill="#00A4C0" d="M127.361,59.08c-5.66,0-8.49-1.74-8.49-5.22v-1.59c0-3.48,2.83-5.22,8.49-5.22h12.84v-0.03
			c0-0.58-0.375-1.035-1.125-1.365c-0.75-0.33-1.976-0.495-3.675-0.495h-2.82c-0.46,0-0.76-0.125-0.9-0.375
			c-0.14-0.25-0.21-0.625-0.21-1.125c0-0.52,0.07-0.905,0.21-1.155c0.14-0.25,0.439-0.375,0.9-0.375h2.94
			c5.66,0,8.49,1.74,8.49,5.22v6.51c0,3.479-2.831,5.22-8.49,5.22H127.361z M135.401,56.051c1.68,0,2.899-0.215,3.66-0.645
			c0.76-0.43,1.14-0.945,1.14-1.545v-3.9h-12.72c-1.68,0-2.9,0.21-3.66,0.63c-0.76,0.42-1.14,0.94-1.14,1.56v1.71
			c0,0.6,0.38,1.115,1.14,1.545c0.76,0.43,1.98,0.645,3.66,0.645H135.401z"/>
		<path fill="#00A4C0" d="M150.37,57.791c0,0.58-0.161,0.959-0.48,1.14c-0.32,0.18-0.8,0.271-1.44,0.271s-1.115-0.091-1.425-0.271
			c-0.311-0.181-0.465-0.56-0.465-1.14v-19.17c0-0.58,0.154-0.96,0.465-1.14c0.31-0.18,0.785-0.27,1.425-0.27s1.12,0.09,1.44,0.27
			c0.319,0.18,0.48,0.56,0.48,1.14V57.791z"/>
		<path fill="#00A4C0" d="M156.73,52.331v1.53c0,0.6,0.379,1.115,1.14,1.545c0.76,0.43,1.98,0.645,3.66,0.645h3.45
			c0.459,0,0.754,0.125,0.885,0.375c0.13,0.25,0.195,0.625,0.195,1.125s-0.065,0.88-0.195,1.14c-0.13,0.261-0.425,0.39-0.885,0.39
			h-3.57c-5.66,0-8.49-1.74-8.49-5.22v-6.51c0-3.48,2.83-5.22,8.49-5.22h6.93c3,0,5.165,0.431,6.495,1.29
			c1.33,0.86,1.995,2.17,1.995,3.93v3.45c0,0.58-0.11,0.98-0.33,1.2c-0.221,0.22-0.71,0.33-1.47,0.33H156.73z M156.73,49.36h16.29
			v-2.01c0-0.7-0.375-1.24-1.125-1.62c-0.75-0.379-1.976-0.57-3.675-0.57h-6.69c-1.68,0-2.9,0.21-3.66,0.63
			c-0.76,0.42-1.14,0.94-1.14,1.56V49.36z"/>
		<path fill="#00A4C0" d="M180.91,59.201c-0.641,0-1.115-0.091-1.425-0.271c-0.31-0.181-0.465-0.56-0.465-1.14v-10.44
			c0-3.48,2.83-5.22,8.49-5.22h6.54c5.66,0,8.49,1.74,8.49,5.22v10.44c0,0.58-0.16,0.959-0.48,1.14c-0.32,0.18-0.8,0.271-1.44,0.271
			c-0.641,0-1.115-0.091-1.425-0.271c-0.31-0.181-0.465-0.56-0.465-1.14v-10.44c0-0.62-0.38-1.14-1.14-1.56
			c-0.76-0.42-1.98-0.63-3.66-0.63h-6.3c-1.68,0-2.9,0.21-3.66,0.63c-0.761,0.42-1.14,0.94-1.14,1.56v10.44
			c0,0.58-0.161,0.959-0.48,1.14C182.029,59.11,181.549,59.201,180.91,59.201z"/>
		<path fill="#00A4C0" d="M206.979,42.13v-3.51c0-0.58,0.155-0.96,0.465-1.14c0.31-0.18,0.785-0.27,1.425-0.27
			c0.64,0,1.12,0.09,1.44,0.27c0.32,0.18,0.48,0.56,0.48,1.14v3.51h6.33c0.46,0,0.755,0.13,0.885,0.39
			c0.13,0.26,0.195,0.64,0.195,1.14s-0.065,0.875-0.195,1.125s-0.425,0.375-0.885,0.375h-6.33v12.63c0,0.58-0.16,0.959-0.48,1.14
			c-0.32,0.18-0.8,0.271-1.44,0.271c-0.64,0-1.115-0.091-1.425-0.271c-0.311-0.181-0.465-0.56-0.465-1.14v-12.63h-1.71
			c-0.46,0-0.755-0.125-0.885-0.375c-0.13-0.25-0.195-0.625-0.195-1.125s0.065-0.88,0.195-1.14c0.13-0.26,0.424-0.39,0.885-0.39
			H206.979z"/>
	</g>
</g>
<g id="takeawaysTxt">
	<g>
		<path fill="#00A4C0" d="M243.56,40.242v17.22c0,0.581-0.17,0.96-0.51,1.14c-0.34,0.18-0.84,0.271-1.5,0.271
			c-0.64,0-1.13-0.091-1.47-0.271c-0.34-0.18-0.51-0.559-0.51-1.14v-17.22h-9.03c-0.48,0-0.795-0.135-0.945-0.405
			s-0.225-0.675-0.225-1.215s0.075-0.945,0.225-1.215s0.465-0.405,0.945-0.405h22.08c0.48,0,0.795,0.135,0.945,0.405
			c0.15,0.27,0.225,0.675,0.225,1.215s-0.075,0.945-0.225,1.215c-0.15,0.27-0.465,0.405-0.945,0.405H243.56z"/>
		<path fill="#00A4C0" d="M256.4,58.752c-5.66,0-8.49-1.74-8.49-5.22v-1.59c0-3.48,2.83-5.22,8.49-5.22h12.84v-0.03
			c0-0.58-0.375-1.035-1.125-1.365c-0.75-0.33-1.976-0.495-3.675-0.495h-2.82c-0.46,0-0.761-0.125-0.899-0.375
			c-0.141-0.25-0.211-0.625-0.211-1.125c0-0.52,0.07-0.905,0.211-1.155c0.139-0.25,0.439-0.375,0.899-0.375h2.94
			c5.659,0,8.49,1.74,8.49,5.22v6.51c0,3.48-2.831,5.22-8.49,5.22H256.4z M264.44,55.722c1.68,0,2.899-0.215,3.659-0.645
			s1.141-0.945,1.141-1.545v-3.9h-12.72c-1.68,0-2.9,0.21-3.66,0.63c-0.76,0.42-1.14,0.94-1.14,1.56v1.71
			c0,0.6,0.38,1.115,1.14,1.545c0.76,0.43,1.98,0.645,3.66,0.645H264.44z"/>
		<path fill="#00A4C0" d="M279.41,48.492l12.3-6.48c0.26-0.14,0.556-0.229,0.885-0.27c0.33-0.04,0.806-0.06,1.425-0.06
			c0.4,0,0.745,0.09,1.035,0.27c0.29,0.18,0.436,0.46,0.436,0.84c0,0.28-0.08,0.5-0.24,0.66s-0.359,0.3-0.6,0.42l-12.061,6.33
			l12.27,6.21c0.58,0.3,0.871,0.72,0.871,1.26c0,0.44-0.176,0.75-0.525,0.93s-0.875,0.271-1.575,0.271
			c-0.64,0-1.146-0.05-1.515-0.149c-0.371-0.101-0.635-0.2-0.795-0.301l-11.91-6.3v5.34c0,0.581-0.16,0.96-0.48,1.14
			s-0.8,0.271-1.439,0.271c-0.641,0-1.115-0.091-1.426-0.271s-0.465-0.559-0.465-1.14v-19.17c0-0.58,0.154-0.96,0.465-1.14
			c0.311-0.18,0.785-0.27,1.426-0.27c0.64,0,1.119,0.09,1.439,0.27c0.32,0.18,0.48,0.56,0.48,1.14V48.492z"/>
		<path fill="#00A4C0" d="M300.44,52.002v1.53c0,0.6,0.38,1.115,1.14,1.545s1.98,0.645,3.66,0.645h3.45
			c0.46,0,0.755,0.125,0.885,0.375c0.13,0.25,0.194,0.625,0.194,1.125s-0.064,0.879-0.194,1.139
			c-0.13,0.261-0.425,0.391-0.885,0.391h-3.57c-5.66,0-8.489-1.74-8.489-5.22v-6.51c0-3.48,2.829-5.22,8.489-5.22h6.931
			c3,0,5.164,0.431,6.494,1.29c1.33,0.86,1.995,2.17,1.995,3.93v3.45c0,0.58-0.11,0.98-0.329,1.2c-0.221,0.22-0.711,0.33-1.471,0.33
			H300.44z M300.44,49.032h16.29v-2.01c0-0.7-0.375-1.24-1.125-1.62c-0.75-0.379-1.976-0.57-3.676-0.57h-6.689
			c-1.68,0-2.9,0.21-3.66,0.63s-1.14,0.94-1.14,1.56V49.032z"/>
		<path fill="#00A4C0" d="M330.891,58.752c-5.66,0-8.49-1.74-8.49-5.22v-1.59c0-3.48,2.83-5.22,8.49-5.22h12.84v-0.03
			c0-0.58-0.375-1.035-1.125-1.365c-0.75-0.33-1.977-0.495-3.676-0.495h-2.82c-0.46,0-0.76-0.125-0.899-0.375S335,43.832,335,43.332
			c0-0.52,0.07-0.905,0.21-1.155c0.14-0.25,0.439-0.375,0.899-0.375h2.94c5.659,0,8.49,1.74,8.49,5.22v6.51
			c0,3.48-2.831,5.22-8.49,5.22H330.891z M338.93,55.722c1.68,0,2.9-0.215,3.66-0.645s1.141-0.945,1.141-1.545v-3.9H331.01
			c-1.68,0-2.9,0.21-3.66,0.63c-0.76,0.42-1.14,0.94-1.14,1.56v1.71c0,0.6,0.38,1.115,1.14,1.545s1.98,0.645,3.66,0.645H338.93z"/>
		<path fill="#00A4C0" d="M359.811,57.852c-0.36,0.681-1.08,1.021-2.16,1.021c-0.541,0-1.006-0.085-1.396-0.255
			s-0.675-0.445-0.854-0.825l-6.9-14.46c-0.12-0.2-0.18-0.39-0.18-0.57c0-0.34,0.189-0.604,0.57-0.795
			c0.379-0.189,0.879-0.285,1.5-0.285c0.879,0,1.42,0.23,1.619,0.69l5.61,12.6l6.3-12.12c0.24-0.46,0.495-0.77,0.766-0.93
			c0.27-0.16,0.664-0.24,1.185-0.24c0.3,0,0.544,0.025,0.735,0.075c0.189,0.05,0.35,0.12,0.479,0.21
			c0.13,0.09,0.245,0.21,0.345,0.36c0.1,0.15,0.2,0.325,0.301,0.525l6.06,12.12l5.729-12.6c0.2-0.46,0.75-0.69,1.65-0.69
			c0.619,0,1.12,0.095,1.5,0.285c0.38,0.19,0.57,0.455,0.57,0.795c0,0.18-0.061,0.371-0.18,0.57l-7.08,14.46
			c-0.181,0.38-0.465,0.655-0.855,0.825s-0.846,0.255-1.365,0.255c-0.5,0-0.945-0.08-1.335-0.24c-0.39-0.159-0.675-0.42-0.854-0.78
			l-5.76-11.7L359.811,57.852z"/>
		<path fill="#00A4C0" d="M390.47,58.752c-5.66,0-8.49-1.74-8.49-5.22v-1.59c0-3.48,2.83-5.22,8.49-5.22h12.84v-0.03
			c0-0.58-0.375-1.035-1.125-1.365c-0.75-0.33-1.976-0.495-3.675-0.495h-2.82c-0.461,0-0.76-0.125-0.9-0.375
			c-0.14-0.25-0.209-0.625-0.209-1.125c0-0.52,0.069-0.905,0.209-1.155c0.141-0.25,0.439-0.375,0.9-0.375h2.939
			c5.66,0,8.49,1.74,8.49,5.22v6.51c0,3.48-2.83,5.22-8.49,5.22H390.47z M398.51,55.722c1.68,0,2.899-0.215,3.66-0.645
			c0.76-0.43,1.14-0.945,1.14-1.545v-3.9h-12.72c-1.68,0-2.9,0.21-3.66,0.63c-0.76,0.42-1.141,0.94-1.141,1.56v1.71
			c0,0.6,0.381,1.115,1.141,1.545s1.98,0.645,3.66,0.645H398.51z"/>
		<path fill="#00A4C0" d="M429.439,55.302v-12.21c0-0.58,0.154-0.96,0.465-1.14c0.311-0.18,0.785-0.27,1.425-0.27
			s1.12,0.09,1.44,0.27c0.319,0.18,0.48,0.56,0.48,1.14v15.391c0,1.74-0.666,3.039-1.996,3.899s-3.254,1.29-5.774,1.29h-4.14
			c-0.461,0-0.756-0.131-0.886-0.391s-0.194-0.64-0.194-1.139c0-0.501,0.064-0.876,0.194-1.125c0.13-0.251,0.425-0.375,0.886-0.375
			h4.14c1.479,0,2.509-0.186,3.09-0.556c0.579-0.37,0.87-0.905,0.87-1.604v-0.15h-11.4c-5.66,0-8.49-1.74-8.49-5.22v-10.02
			c0-0.58,0.155-0.96,0.465-1.14c0.311-0.18,0.785-0.27,1.426-0.27c0.64,0,1.119,0.09,1.439,0.27c0.32,0.18,0.48,0.56,0.48,1.14
			v10.05c0,0.62,0.379,1.135,1.141,1.545c0.76,0.41,1.979,0.615,3.659,0.615H429.439z"/>
		<path fill="#00A4C0" d="M435.68,46.302c0-1.399,0.6-2.5,1.799-3.3c1.201-0.8,2.98-1.2,5.341-1.2h4.11
			c0.459,0,0.76,0.125,0.899,0.375c0.14,0.25,0.21,0.635,0.21,1.155c0,0.5-0.07,0.875-0.21,1.125s-0.44,0.375-0.899,0.375h-4.141
			c-1.14,0-1.98,0.135-2.52,0.405c-0.541,0.27-0.811,0.635-0.811,1.095v0.78c0,0.46,0.28,0.83,0.84,1.11
			c0.561,0.28,1.44,0.42,2.641,0.42h6.63c2.8,0,4.819,0.4,6.06,1.2c1.24,0.8,1.86,1.92,1.86,3.36v0.96
			c0,0.72-0.16,1.365-0.479,1.936c-0.32,0.569-0.82,1.049-1.5,1.439c-0.681,0.39-1.561,0.689-2.641,0.9
			c-1.08,0.209-2.37,0.314-3.87,0.314H436.85c-0.461,0-0.761-0.125-0.9-0.375c-0.141-0.25-0.21-0.635-0.21-1.154
			c0-0.5,0.069-0.875,0.21-1.125c0.14-0.25,0.439-0.375,0.9-0.375h12.72c0.8,0,1.465-0.035,1.995-0.105
			c0.529-0.07,0.949-0.17,1.26-0.3c0.31-0.13,0.525-0.285,0.645-0.465c0.121-0.18,0.181-0.39,0.181-0.63v-1.08
			c0-0.24-0.06-0.45-0.181-0.63c-0.119-0.18-0.33-0.34-0.629-0.48c-0.301-0.14-0.705-0.245-1.216-0.315
			c-0.51-0.07-1.155-0.105-1.935-0.105h-6.721c-2.42,0-4.24-0.395-5.459-1.185c-1.221-0.79-1.83-1.875-1.83-3.255V46.302z"/>
	</g>
</g>
<g id="TMTxt">
	<g>
		<path fill="#A0549E" d="M462.662,31.915v6.888c0,0.232-0.068,0.384-0.204,0.456c-0.136,0.072-0.337,0.108-0.601,0.108
			c-0.256,0-0.451-0.036-0.588-0.108c-0.136-0.072-0.203-0.224-0.203-0.456v-6.888h-3.613c-0.191,0-0.317-0.054-0.377-0.162
			c-0.061-0.108-0.09-0.27-0.09-0.486c0-0.216,0.029-0.378,0.09-0.486c0.06-0.108,0.186-0.162,0.377-0.162h8.832
			c0.193,0,0.318,0.054,0.379,0.162c0.06,0.108,0.09,0.27,0.09,0.486c0,0.216-0.03,0.378-0.09,0.486
			c-0.061,0.108-0.186,0.162-0.379,0.162H462.662z"/>
		<path fill="#A0549E" d="M480.254,31.063c0.128-0.152,0.27-0.26,0.426-0.324s0.33-0.096,0.521-0.096
			c0.593,0,0.889,0.272,0.889,0.816v7.344c0,0.232-0.068,0.384-0.204,0.456c-0.136,0.072-0.336,0.108-0.601,0.108
			c-0.264,0-0.463-0.036-0.6-0.108c-0.136-0.072-0.203-0.224-0.203-0.456v-5.688l-4.789,5.796c-0.136,0.16-0.275,0.276-0.42,0.348
			c-0.144,0.072-0.32,0.108-0.527,0.108c-0.232,0-0.426-0.036-0.582-0.108c-0.156-0.072-0.299-0.188-0.426-0.348l-4.801-5.796v5.688
			c0,0.232-0.068,0.384-0.203,0.456c-0.137,0.072-0.336,0.108-0.601,0.108c-0.256,0-0.452-0.036-0.588-0.108
			c-0.136-0.072-0.204-0.224-0.204-0.456v-7.344c0-0.544,0.292-0.816,0.876-0.816c0.392,0,0.708,0.14,0.948,0.42l5.52,6.66
			L480.254,31.063z"/>
	</g>
</g>
<g id="focusTxt">
	<g>
		<path fill="#A0549E" d="M273.268,64.168c0.215,0,0.352,0.061,0.412,0.183c0.061,0.121,0.092,0.299,0.092,0.532
			c0,0.232-0.031,0.408-0.092,0.524c-0.061,0.117-0.197,0.175-0.412,0.175h-1.008c-0.635,0-1.088,0.07-1.358,0.211
			c-0.271,0.139-0.43,0.345-0.476,0.615h2.842c0.215,0,0.352,0.061,0.412,0.182c0.061,0.122,0.092,0.299,0.092,0.533
			c0,0.232-0.031,0.408-0.092,0.524s-0.197,0.175-0.412,0.175h-2.856v5.895c0,0.271-0.075,0.447-0.224,0.531
			c-0.149,0.084-0.373,0.127-0.672,0.127s-0.521-0.043-0.666-0.127s-0.217-0.261-0.217-0.531V66.59c0-0.812,0.311-1.418,0.932-1.819
			s1.519-0.603,2.695-0.603H273.268z"/>
		<path fill="#A0549E" d="M274.332,68.844c0-1.623,1.32-2.436,3.961-2.436h3.053c2.641,0,3.961,0.813,3.961,2.436v3.039
			c0,1.623-1.32,2.436-3.961,2.436h-3.053c-2.641,0-3.961-0.813-3.961-2.436V68.844z M283.529,68.844
			c0-0.289-0.178-0.531-0.531-0.728c-0.355-0.196-0.925-0.294-1.709-0.294h-2.939c-0.784,0-1.354,0.098-1.709,0.294
			c-0.354,0.196-0.531,0.438-0.531,0.728v3.039c0,0.279,0.178,0.52,0.531,0.721c0.355,0.201,0.925,0.301,1.709,0.301h2.939
			c0.784,0,1.354-0.1,1.709-0.301c0.354-0.201,0.531-0.441,0.531-0.721V68.844z"/>
		<path fill="#A0549E" d="M290.333,74.318c-2.642,0-3.962-0.813-3.962-2.436v-3.039c0-1.623,1.32-2.436,3.962-2.436h7
			c0.214,0,0.354,0.059,0.42,0.176c0.065,0.116,0.099,0.296,0.099,0.539c0,0.232-0.033,0.408-0.099,0.524s-0.206,0.175-0.42,0.175
			h-6.944c-0.783,0-1.354,0.098-1.708,0.294s-0.532,0.438-0.532,0.728v3.039c0,0.279,0.178,0.52,0.532,0.721
			s0.925,0.301,1.708,0.301h6.986c0.215,0,0.352,0.059,0.413,0.176c0.061,0.116,0.091,0.291,0.091,0.524s-0.03,0.411-0.091,0.532
			c-0.062,0.121-0.198,0.182-0.413,0.182H290.333z"/>
		<path fill="#A0549E" d="M309.331,66.353c0.298,0,0.521,0.042,0.665,0.126s0.217,0.262,0.217,0.531v4.873
			c0,1.623-1.32,2.436-3.962,2.436h-3.347c-2.641,0-3.961-0.813-3.961-2.436V67.01c0-0.27,0.074-0.447,0.224-0.531
			s0.373-0.126,0.672-0.126c0.298,0,0.521,0.042,0.665,0.126s0.217,0.262,0.217,0.531v4.873c0,0.289,0.178,0.531,0.532,0.728
			s0.924,0.294,1.708,0.294h3.234c0.783,0,1.353-0.098,1.707-0.294c0.355-0.196,0.533-0.438,0.533-0.728V67.01
			c0-0.27,0.074-0.447,0.223-0.531C308.809,66.395,309.032,66.353,309.331,66.353z"/>
		<path fill="#A0549E" d="M311.291,68.508c0-0.652,0.279-1.166,0.84-1.539s1.391-0.561,2.492-0.561h1.918
			c0.215,0,0.354,0.059,0.42,0.176c0.065,0.116,0.098,0.296,0.098,0.539c0,0.232-0.032,0.408-0.098,0.524s-0.205,0.175-0.42,0.175
			h-1.932c-0.532,0-0.924,0.063-1.176,0.189c-0.252,0.125-0.379,0.296-0.379,0.511v0.364c0,0.215,0.131,0.387,0.393,0.518
			c0.261,0.131,0.672,0.196,1.231,0.196h3.095c1.307,0,2.248,0.187,2.828,0.56c0.578,0.373,0.867,0.896,0.867,1.568v0.447
			c0,0.336-0.074,0.638-0.224,0.904c-0.149,0.266-0.383,0.489-0.7,0.672c-0.317,0.182-0.729,0.321-1.232,0.42
			c-0.504,0.098-1.105,0.146-1.806,0.146h-5.67c-0.215,0-0.354-0.059-0.42-0.175s-0.099-0.296-0.099-0.539
			c0-0.233,0.033-0.408,0.099-0.524c0.065-0.117,0.205-0.176,0.42-0.176h5.937c0.373,0,0.684-0.016,0.931-0.049
			s0.442-0.079,0.588-0.141c0.145-0.061,0.245-0.133,0.301-0.217s0.084-0.182,0.084-0.293V71.7c0-0.112-0.028-0.21-0.084-0.294
			s-0.153-0.158-0.294-0.225c-0.14-0.064-0.329-0.113-0.566-0.146c-0.238-0.032-0.539-0.049-0.903-0.049h-3.136
			c-1.13,0-1.979-0.184-2.549-0.553c-0.568-0.369-0.854-0.875-0.854-1.52V68.508z"/>
		<path fill="#A0549E" d="M327.279,68.844c0-1.623,1.32-2.436,3.961-2.436h3.053c2.641,0,3.961,0.813,3.961,2.436v3.039
			c0,1.623-1.32,2.436-3.961,2.436h-3.053c-2.641,0-3.961-0.813-3.961-2.436V68.844z M336.477,68.844
			c0-0.289-0.178-0.531-0.531-0.728c-0.355-0.196-0.925-0.294-1.709-0.294h-2.939c-0.784,0-1.354,0.098-1.709,0.294
			c-0.354,0.196-0.531,0.438-0.531,0.728v3.039c0,0.279,0.178,0.52,0.531,0.721c0.355,0.201,0.925,0.301,1.709,0.301h2.939
			c0.784,0,1.354-0.1,1.709-0.301c0.354-0.201,0.531-0.441,0.531-0.721V68.844z"/>
		<path fill="#A0549E" d="M340.271,74.375c-0.299,0-0.521-0.043-0.665-0.127s-0.217-0.261-0.217-0.531v-4.873
			c0-1.623,1.32-2.436,3.962-2.436h3.052c2.642,0,3.963,0.813,3.963,2.436v4.873c0,0.271-0.075,0.447-0.225,0.531
			s-0.373,0.127-0.672,0.127s-0.521-0.043-0.665-0.127c-0.146-0.084-0.218-0.261-0.218-0.531v-4.873
			c0-0.289-0.177-0.531-0.531-0.728c-0.355-0.196-0.924-0.294-1.708-0.294h-2.94c-0.783,0-1.354,0.098-1.707,0.294
			c-0.355,0.196-0.533,0.438-0.533,0.728v4.873c0,0.271-0.074,0.447-0.224,0.531S340.569,74.375,340.271,74.375z"/>
		<path fill="#A0549E" d="M358.289,69.53l5.739-3.024c0.122-0.064,0.259-0.106,0.413-0.125c0.154-0.02,0.375-0.028,0.665-0.028
			c0.187,0,0.348,0.042,0.483,0.126c0.135,0.084,0.203,0.215,0.203,0.392c0,0.131-0.037,0.233-0.112,0.308
			c-0.075,0.075-0.168,0.141-0.28,0.197l-5.628,2.953l5.726,2.898c0.271,0.14,0.406,0.336,0.406,0.588
			c0,0.205-0.082,0.35-0.244,0.434c-0.164,0.084-0.409,0.127-0.736,0.127c-0.299,0-0.533-0.023-0.706-0.07s-0.297-0.094-0.371-0.141
			l-5.558-2.939v2.492c0,0.271-0.075,0.447-0.225,0.531s-0.373,0.127-0.672,0.127s-0.521-0.043-0.665-0.127
			c-0.146-0.084-0.217-0.261-0.217-0.531v-8.946c0-0.271,0.071-0.448,0.217-0.532c0.145-0.084,0.366-0.126,0.665-0.126
			s0.522,0.042,0.672,0.126s0.225,0.262,0.225,0.532V69.53z"/>
		<path fill="#A0549E" d="M367.654,74.375c-0.299,0-0.521-0.043-0.665-0.127s-0.217-0.261-0.217-0.531v-4.873
			c0-1.623,1.32-2.436,3.962-2.436h3.053c2.641,0,3.961,0.813,3.961,2.436v4.873c0,0.271-0.074,0.447-0.224,0.531
			s-0.374,0.127-0.672,0.127c-0.299,0-0.521-0.043-0.665-0.127s-0.217-0.261-0.217-0.531v-4.873c0-0.289-0.178-0.531-0.532-0.728
			s-0.924-0.294-1.708-0.294h-2.939c-0.785,0-1.354,0.098-1.709,0.294c-0.354,0.196-0.531,0.438-0.531,0.728v4.873
			c0,0.271-0.075,0.447-0.225,0.531C368.178,74.332,367.953,74.375,367.654,74.375z"/>
		<path fill="#A0549E" d="M378.883,68.844c0-1.623,1.32-2.436,3.961-2.436h3.053c2.641,0,3.961,0.813,3.961,2.436v3.039
			c0,1.623-1.32,2.436-3.961,2.436h-3.053c-2.641,0-3.961-0.813-3.961-2.436V68.844z M388.08,68.844
			c0-0.289-0.178-0.531-0.531-0.728c-0.355-0.196-0.925-0.294-1.709-0.294H382.9c-0.784,0-1.354,0.098-1.709,0.294
			c-0.354,0.196-0.531,0.438-0.531,0.728v3.039c0,0.279,0.178,0.52,0.531,0.721c0.355,0.201,0.925,0.301,1.709,0.301h2.939
			c0.784,0,1.354-0.1,1.709-0.301c0.354-0.201,0.531-0.441,0.531-0.721V68.844z"/>
		<path fill="#A0549E" d="M395.584,73.898c-0.168,0.317-0.504,0.477-1.008,0.477c-0.252,0-0.469-0.041-0.651-0.119
			c-0.182-0.08-0.315-0.208-0.399-0.386l-3.219-6.747c-0.057-0.094-0.084-0.183-0.084-0.267c0-0.159,0.088-0.282,0.266-0.371
			c0.177-0.089,0.41-0.133,0.699-0.133c0.411,0,0.663,0.107,0.756,0.321l2.619,5.881l2.939-5.656
			c0.112-0.215,0.23-0.359,0.357-0.434c0.125-0.075,0.311-0.112,0.553-0.112c0.141,0,0.254,0.012,0.343,0.034
			c0.089,0.023,0.163,0.057,0.224,0.099s0.115,0.099,0.162,0.168c0.046,0.069,0.093,0.151,0.14,0.245l2.827,5.656l2.675-5.881
			c0.093-0.214,0.35-0.321,0.771-0.321c0.289,0,0.521,0.044,0.699,0.133s0.266,0.212,0.266,0.371c0,0.084-0.027,0.173-0.084,0.267
			l-3.304,6.747c-0.084,0.178-0.217,0.306-0.399,0.386c-0.182,0.078-0.395,0.119-0.637,0.119c-0.232,0-0.441-0.038-0.623-0.113
			c-0.182-0.074-0.314-0.195-0.398-0.363l-2.688-5.46L395.584,73.898z"/>
		<path fill="#A0549E" d="M409.094,73.717c0,0.271-0.074,0.447-0.224,0.531s-0.374,0.127-0.672,0.127
			c-0.299,0-0.521-0.043-0.665-0.127s-0.217-0.261-0.217-0.531v-8.946c0-0.271,0.072-0.448,0.217-0.532s0.366-0.126,0.665-0.126
			c0.298,0,0.522,0.042,0.672,0.126s0.224,0.262,0.224,0.532V73.717z"/>
		<path fill="#A0549E" d="M412.063,71.168v0.715c0,0.279,0.177,0.52,0.531,0.721c0.355,0.201,0.924,0.301,1.708,0.301h1.61
			c0.215,0,0.352,0.059,0.413,0.176c0.061,0.116,0.091,0.291,0.091,0.524s-0.03,0.411-0.091,0.532
			c-0.062,0.121-0.198,0.182-0.413,0.182h-1.666c-2.642,0-3.962-0.813-3.962-2.436v-3.039c0-1.623,1.32-2.436,3.962-2.436h3.234
			c1.399,0,2.41,0.201,3.03,0.602c0.62,0.402,0.931,1.014,0.931,1.834v1.611c0,0.27-0.051,0.457-0.153,0.559
			c-0.103,0.104-0.331,0.154-0.687,0.154H412.063z M412.063,69.782h7.602v-0.938c0-0.326-0.176-0.578-0.525-0.756
			c-0.35-0.177-0.922-0.266-1.715-0.266h-3.122c-0.784,0-1.353,0.098-1.708,0.294c-0.354,0.196-0.531,0.438-0.531,0.728V69.782z"/>
		<path fill="#A0549E" d="M431.9,64.771c0-0.271,0.074-0.448,0.224-0.532s0.373-0.126,0.672-0.126c0.298,0,0.521,0.042,0.665,0.126
			s0.217,0.262,0.217,0.532v7.112c0,1.623-1.32,2.436-3.962,2.436h-3.36c-2.641,0-3.961-0.813-3.961-2.436v-3.039
			c0-1.623,1.32-2.436,3.961-2.436h5.545V64.771z M426.412,67.822c-0.784,0-1.354,0.098-1.709,0.294
			c-0.354,0.196-0.531,0.438-0.531,0.728v3.039c0,0.279,0.178,0.52,0.531,0.721c0.355,0.201,0.925,0.301,1.709,0.301h3.248
			c0.783,0,1.354-0.1,1.707-0.301c0.355-0.201,0.533-0.441,0.533-0.721v-4.061H426.412z"/>
		<path fill="#A0549E" d="M440.384,76.614c-0.215,0-0.353-0.061-0.413-0.183c-0.061-0.121-0.091-0.298-0.091-0.531
			s0.03-0.408,0.091-0.525c0.061-0.116,0.198-0.175,0.413-0.175h1.933c0.689,0,1.17-0.087,1.441-0.259
			c0.271-0.173,0.406-0.422,0.406-0.749v-0.069h-5.391c-2.641,0-3.961-0.813-3.961-2.437v-2.843c0-1.623,1.32-2.436,3.961-2.436
			h3.207c2.641,0,3.961,0.813,3.961,2.436v5.349c0,0.812-0.311,1.419-0.931,1.819c-0.62,0.402-1.519,0.603-2.694,0.603H440.384z
			 M444.164,72.736v-3.893c0-0.279-0.178-0.52-0.532-0.721c-0.354-0.2-0.924-0.301-1.708-0.301h-3.094
			c-0.784,0-1.354,0.101-1.709,0.301c-0.354,0.201-0.531,0.441-0.531,0.721v2.871c0,0.289,0.178,0.531,0.531,0.728
			c0.355,0.196,0.925,0.294,1.709,0.294H444.164z"/>
		<path fill="#A0549E" d="M448.854,71.168v0.715c0,0.279,0.178,0.52,0.531,0.721c0.355,0.201,0.925,0.301,1.709,0.301h1.609
			c0.215,0,0.353,0.059,0.414,0.176c0.061,0.116,0.09,0.291,0.09,0.524s-0.029,0.411-0.09,0.532
			c-0.062,0.121-0.199,0.182-0.414,0.182h-1.666c-2.641,0-3.961-0.813-3.961-2.436v-3.039c0-1.623,1.32-2.436,3.961-2.436h3.234
			c1.4,0,2.41,0.201,3.031,0.602c0.62,0.402,0.931,1.014,0.931,1.834v1.611c0,0.27-0.052,0.457-0.153,0.559
			c-0.104,0.104-0.332,0.154-0.687,0.154H448.854z M448.854,69.782h7.602v-0.938c0-0.326-0.175-0.578-0.524-0.756
			c-0.351-0.177-0.922-0.266-1.716-0.266h-3.121c-0.784,0-1.354,0.098-1.709,0.294c-0.354,0.196-0.531,0.438-0.531,0.728V69.782z"/>
	</g>
</g>
</g>
<g id="hand">
	<path fill="#00A4C0" d="M20.218,89.274c1.925-6.039,5.094-12.642,10.026-16.771c4.733-3.963,13.991-5.678,19.974-5.479
		c7.5,0.25,12.25-2.5,12.25-2.5s2.5,5.25-13.75,7.75c-1.309,0.201-8.571,0.961-6.908,3.43c0.858,1.274,5.006,2.099,6.446,2.141
		c4.278,0.126,9.534-2.26,13.356-4.167c4.352-2.171,8.31-5.051,11.91-8.308c1.333-1.207,2.621-2.464,3.859-3.769
		c0.738-0.778,2.881-4.153,3.836-4.327c0.002,0,5.5-0.999,2.25,3.25c0,0-13.451,21.858-36.821,26.963
		c-0.472,0.103-0.948,0.198-1.428,0.287l-24,1.25L20.218,89.274z"/>
</g>
<g id="yellow-star">
	<polygon fill="#D9E12C" points="45.202,30.548 48.876,34.953 54.587,34.425 51.533,39.28 53.802,44.547 48.24,43.143 
		43.931,46.929 43.548,41.205 38.617,38.275 43.94,36.144 	"/>
</g>
<g id="blue-star">
	<polygon fill="#089DBB" points="60.636,19.288 61.927,21.792 64.722,22.149 62.738,24.151 63.264,26.919 60.747,25.651 
		58.276,27.007 58.703,24.221 56.652,22.289 59.433,21.836 	"/>
</g>
<g id="purple-star">
	<polygon fill="#A0549E" points="67.641,45.417 68.655,48.536 71.8,49.471 69.145,51.398 69.231,54.678 66.578,52.75 63.484,53.844 
		64.497,50.723 62.502,48.121 65.783,48.12 	"/>
</g>
</svg>
